<svg width="141" height="36" viewBox="0 0 141 36" fill="none" xmlns="http://www.w3.org/2000/svg">
<path d="M11.8096 6.848L11.2696 10.016H19.1896L18.1096 16.028H10.1896L9.54159 19.628H18.5416L17.4256 26H0.433594L4.93359 0.512H21.9256L20.8096 6.848H11.8096ZM21.1575 15.848C21.5415 13.712 22.2375 11.864 23.2455 10.304C24.2535 8.72 25.4655 7.52 26.8815 6.704C28.2975 5.864 29.7975 5.444 31.3815 5.444C32.7015 5.444 33.7935 5.72 34.6575 6.272C35.5215 6.8 36.1215 7.532 36.4575 8.468L36.9615 5.696H44.9175L41.3175 26H33.3615L33.8655 23.228C33.1935 24.164 32.3295 24.908 31.2735 25.46C30.2175 25.988 29.0295 26.252 27.7095 26.252C25.6695 26.252 24.0255 25.568 22.7775 24.2C21.5295 22.832 20.9055 20.936 20.9055 18.512C20.9055 17.6 20.9895 16.712 21.1575 15.848ZM35.1615 15.848C35.2095 15.632 35.2335 15.344 35.2335 14.984C35.2335 14.168 35.0175 13.544 34.5855 13.112C34.1535 12.656 33.5655 12.428 32.8215 12.428C31.9575 12.428 31.1895 12.728 30.5175 13.328C29.8695 13.928 29.4495 14.768 29.2575 15.848C29.2095 16.064 29.1855 16.352 29.1855 16.712C29.1855 17.528 29.4015 18.164 29.8335 18.62C30.2655 19.052 30.8535 19.268 31.5975 19.268C32.4615 19.268 33.2175 18.968 33.8655 18.368C34.5375 17.768 34.9695 16.928 35.1615 15.848ZM54.1943 26.252C52.4183 26.252 50.8343 25.988 49.4423 25.46C48.0743 24.932 46.9943 24.2 46.2023 23.264C45.4343 22.304 45.0503 21.212 45.0503 19.988C45.0503 19.532 45.0743 19.196 45.1223 18.98H52.7903C52.7663 19.58 52.9343 20.024 53.2943 20.312C53.6783 20.6 54.1943 20.744 54.8423 20.744C55.2503 20.744 55.5983 20.648 55.8863 20.456C56.1983 20.264 56.3543 20.036 56.3543 19.772C56.3543 19.388 56.1143 19.088 55.6343 18.872C55.1543 18.632 54.3623 18.368 53.2583 18.08C51.8663 17.696 50.7023 17.3 49.7663 16.892C48.8543 16.484 48.0503 15.884 47.3543 15.092C46.6823 14.276 46.3463 13.22 46.3463 11.924C46.3463 10.724 46.7063 9.632 47.4263 8.648C48.1703 7.64 49.2023 6.86 50.5223 6.308C51.8663 5.732 53.4143 5.444 55.1663 5.444C57.0863 5.444 58.7303 5.768 60.0983 6.416C61.4903 7.064 62.5343 7.94 63.2303 9.044C63.9263 10.148 64.2503 11.372 64.2023 12.716H57.1103C57.1103 12.164 56.9423 11.744 56.6063 11.456C56.2703 11.144 55.7783 10.988 55.1303 10.988C54.7223 10.988 54.3743 11.072 54.0863 11.24C53.8223 11.408 53.6903 11.636 53.6903 11.924C53.6903 12.284 53.9303 12.584 54.4102 12.824C54.8903 13.04 55.7063 13.328 56.8583 13.688C58.2743 14.096 59.4383 14.504 60.3503 14.912C61.2863 15.296 62.1023 15.884 62.7983 16.676C63.4943 17.444 63.8423 18.428 63.8423 19.628C63.8423 21.716 62.9423 23.348 61.1423 24.524C59.3663 25.676 57.0503 26.252 54.1943 26.252ZM76.0859 5.696L78.0659 15.992L83.4659 5.696H92.2859L73.9979 35.72H65.2499L72.2339 24.992L67.1939 5.696H76.0859ZM113.913 9.26C113.625 10.868 113.001 12.332 112.041 13.652C111.081 14.948 109.797 15.98 108.189 16.748C106.605 17.516 104.781 17.9 102.717 17.9H99.5492L98.1092 26H90.1172L94.6172 0.512H105.777C108.489 0.512 110.553 1.124 111.969 2.348C113.385 3.572 114.093 5.252 114.093 7.388C114.093 7.916 114.033 8.54 113.913 9.26ZM102.933 11.6C104.565 11.6 105.525 10.82 105.813 9.26C105.861 8.972 105.885 8.768 105.885 8.648C105.885 7.496 105.177 6.92 103.761 6.92H101.493L100.665 11.6H102.933ZM115.044 13.22C115.476 10.7 116.388 8.456 117.78 6.488C119.172 4.52 120.936 2.996 123.072 1.916C125.208 0.811999 127.584 0.259999 130.2 0.259999C132.432 0.259999 134.328 0.631999 135.888 1.376C137.472 2.096 138.648 3.128 139.416 4.472C140.208 5.816 140.568 7.4 140.496 9.224H132.072C131.856 8.72 131.484 8.336 130.956 8.072C130.428 7.784 129.756 7.64 128.94 7.64C127.404 7.64 126.12 8.144 125.088 9.152C124.08 10.16 123.432 11.516 123.144 13.22C123.024 13.94 122.964 14.528 122.964 14.984C122.964 17.768 124.584 19.16 127.824 19.16C129.672 19.16 131.292 18.416 132.684 16.928H126.312L127.284 11.276H140.28L138.876 19.268C137.436 21.164 135.624 22.796 133.44 24.164C131.256 25.508 128.676 26.18 125.7 26.18C123.396 26.18 121.428 25.76 119.796 24.92C118.164 24.08 116.916 22.904 116.052 21.392C115.212 19.856 114.792 18.068 114.792 16.028C114.792 15.068 114.876 14.132 115.044 13.22Z" fill="#2C67FF"/>
</svg>
